<svg width="55" height="49" viewBox="0 0 55 49" fill="none" xmlns="http://www.w3.org/2000/svg">
<path d="M31.6 14H34V10.6C34 10.2686 34.2686 10 34.6 10H35.4C35.7314 10 36 10.2686 36 10.6V14H38.4C39.2837 14 40 14.7163 40 15.6V33.4C40 34.2837 39.2837 35 38.4 35H36V48.4C36 48.7314 35.7314 49 35.4 49H34.6C34.2686 49 34 48.7314 34 48.4V35H31.6C30.7163 35 30 34.2837 30 33.4V15.6C30 14.7163 30.7163 14 31.6 14Z" fill="#F7AB1F"/>
<path d="M49 10V6.6C49 6.26863 49.2686 6 49.6 6H50.4C50.7314 6 51 6.26863 51 6.6V10H53.4C54.2837 10 55 10.7163 55 11.6V25.4C55 26.2837 54.2837 27 53.4 27H51V34.4C51 34.7314 50.7314 35 50.4 35H49.6C49.2686 35 49 34.7314 49 34.4V27H46.6C45.7163 27 45 26.2837 45 25.4V11.6C45 10.7163 45.7163 10 46.6 10H49Z" fill="#F7AB1F"/>
<path d="M19 27V23.6C19 23.2686 19.2686 23 19.6 23H20.4C20.7314 23 21 23.2686 21 23.6V27H23.4C24.2837 27 25 27.7163 25 28.6V40.4C25 41.2837 24.2837 42 23.4 42H21V48.4C21 48.7314 20.7314 49 20.4 49H19.6C19.2686 49 19 48.7314 19 48.4V42H16.6C15.7163 42 15 41.2837 15 40.4V28.6C15 27.7163 15.7163 27 16.6 27H19Z" fill="#F7AB1F"/>
<path d="M5.4 0H4.6C4.26863 0 4 0.268629 4 0.6V12H1.6C0.716344 12 0 12.7163 0 13.6V33.4C0 34.2837 0.716344 35 1.6 35H4V38.4C4 38.7314 4.26863 39 4.6 39H5.4C5.73137 39 6 38.7314 6 38.4V35H8.4C9.28366 35 10 34.2837 10 33.4V13.6C10 12.7163 9.28366 12 8.4 12H6V0.6C6 0.268629 5.73137 0 5.4 0Z" fill="#F7AB1F"/>
</svg>
