<svg width="38" height="38" viewBox="0 0 38 38" fill="none" xmlns="http://www.w3.org/2000/svg">
<circle cx="19" cy="19" r="19" fill="#1672F9" fill-opacity="0.4"/>
<path d="M18.3843 30.7996V28.7567C15.8284 28.4955 13.5336 27.4787 11.5 25.7063L13.5429 23.2716C15.1101 24.6336 16.7239 25.4451 18.3843 25.7063V20.2772C16.2761 19.7735 14.7276 19.1112 13.7388 18.2903C12.7687 17.4694 12.2836 16.2567 12.2836 14.6522C12.2836 13.0291 12.8433 11.7045 13.9627 10.6783C15.1007 9.65221 16.5746 9.09251 18.3843 8.99923V7.59998H20.1754V9.02721C22.2276 9.17647 24.1679 9.8761 25.9963 11.1261L24.1772 13.7007C22.9459 12.8239 21.6119 12.2828 20.1754 12.0776V17.3388H20.2593C22.4049 17.8425 23.9813 18.5235 24.9888 19.3817C25.9963 20.2399 26.5 21.4899 26.5 23.1317C26.5 24.7548 25.9216 26.0795 24.7649 27.1056C23.6082 28.1317 22.0784 28.6914 20.1754 28.7847V30.7996H18.3843ZM20.1754 25.7903C21.0709 25.697 21.7799 25.4358 22.3022 25.0067C22.8246 24.5776 23.0858 24.0365 23.0858 23.3836C23.0858 22.7306 22.8806 22.2175 22.4701 21.8444C22.0597 21.4526 21.2948 21.0888 20.1754 20.753V25.7903ZM18.3843 11.9936C17.5448 12.0683 16.8825 12.3201 16.3974 12.7492C15.931 13.1597 15.6978 13.6821 15.6978 14.3164C15.6978 14.9321 15.8843 15.4265 16.2575 15.7996C16.6306 16.1541 17.3396 16.4992 18.3843 16.8351V11.9936Z" fill="white"/>
</svg>
