<svg width="216" height="91" viewBox="0 0 216 91" fill="none" xmlns="http://www.w3.org/2000/svg">
<g clip-path="url(#clip0_205_1644)">
<path d="M10.5 19.1006L0 29.1564V91H216V45.743L207.5 54.7989L205 73.4022L187.5 76.419L184 67.8715L178 82.9553L175.5 64.8548L170 60.8324L165.5 66.3631L160.5 56.8101L157.5 63.8492V55.8045L153 59.8268L149.5 54.7989V15.581L143.5 11.0559L141 19.1006L135.5 22.1173L131.5 2.50838L124.5 12.0615L118.5 9.04469L110.5 15.581L105 7.53631V19.1006L96.5 20.1061L92.5 11.0559L90.5 20.1061L86.5 5.02235L78.5 7.53631V1L55 27.648L54 17.0894L39.5 19.1006L37 11.0559V29.1564H29.5L26.5 15.581H15.5V30.6648L10.5 32.676V19.1006Z" fill="url(#paint0_linear_205_1644)"/>
<path d="M0 29L10.5 19V32.5L15.5 30.5V15.5H26.5L29.5 29H37V11L39.5 19L54 17L55 27.5L78.5 1V7.5L86.5 5L90.5 20L92.5 11L96.5 20L105 19V7.5L110.5 15.5L118.5 9L124.5 12L131.5 2.5L135.5 22L141 19L143.5 11L149.5 15.5V54.5L153 59.5L157.5 55.5V63.5L160.5 56.5L165.5 66L170 60.5L175.5 64.5L178 82.5L184 67.5L187.5 76L205 73L207.5 54.5L216.5 45.5" stroke="white" stroke-width="1.2" stroke-linecap="round" stroke-linejoin="round"/>
<circle cx="31" cy="29" r="3" fill="#3FB68B"/>
<path d="M32 29H202" stroke="#3FB68B" stroke-opacity="0.6" stroke-width="1.4" stroke-linecap="square" stroke-linejoin="round"/>
<g clip-path="url(#clip1_205_1644)">
<rect x="18" y="35.5" width="37" height="20" rx="10" fill="#3FB68B" fill-opacity="0.4"/>
<path d="M29.007 40.7334H29.4709V41.5537C30.301 41.5798 30.9748 41.7539 31.4924 42.0762L31.2482 42.7646C31.0497 42.654 30.7876 42.5547 30.4621 42.4668C30.1398 42.3757 29.8094 42.3219 29.4709 42.3057V44.7861L29.9787 44.9082C30.5646 45.0482 31.009 45.2728 31.3117 45.582C31.6145 45.888 31.7658 46.3242 31.7658 46.8906C31.7658 47.5905 31.5607 48.126 31.1506 48.4971C30.7437 48.8682 30.1838 49.0716 29.4709 49.1074V49.9521H29.007V49.1074C28.4862 49.0911 28.0207 49.026 27.6105 48.9121C27.2036 48.7949 26.8781 48.6615 26.634 48.5117L26.8879 47.8086C27.5454 48.1309 28.2518 48.3132 29.007 48.3555V45.5234L28.2893 45.3428C27.1923 45.0661 26.6438 44.4801 26.6438 43.585C26.6438 42.9437 26.8521 42.457 27.2688 42.125C27.6854 41.7897 28.2648 41.6025 29.007 41.5635V40.7334ZM29.007 44.6738V42.3105C28.0174 42.3691 27.5227 42.7744 27.5227 43.5264C27.5227 43.8031 27.6122 44.026 27.7912 44.1953C27.9735 44.3613 28.2453 44.4883 28.6066 44.5762L29.007 44.6738ZM29.4709 45.6406V48.3604C30.4182 48.3115 30.8918 47.8314 30.8918 46.9199C30.8918 46.6074 30.8072 46.3551 30.6379 46.1631C30.4719 45.9678 30.1675 45.8148 29.7248 45.7041L29.4709 45.6406ZM33.5141 41.6953H34.2904V49H33.4262V42.5986C33.0974 42.8135 32.6954 42.9974 32.2201 43.1504V42.335C32.2722 42.3122 32.378 42.2666 32.5375 42.1982C32.697 42.1299 32.8158 42.0778 32.8939 42.042C32.9753 42.0062 33.0762 41.9557 33.1967 41.8906C33.3171 41.8255 33.4229 41.7604 33.5141 41.6953ZM39.066 48.8291C38.7438 49.0179 38.3661 49.1123 37.9332 49.1123C37.5003 49.1123 37.121 49.0179 36.7955 48.8291C36.47 48.637 36.2079 48.3685 36.0094 48.0234C35.8141 47.6784 35.6676 47.2812 35.5699 46.832C35.4755 46.3828 35.4283 45.8831 35.4283 45.333C35.4283 44.8805 35.4592 44.4622 35.5211 44.0781C35.5862 43.694 35.6855 43.3457 35.8189 43.0332C35.9524 42.7207 36.1168 42.4554 36.3121 42.2373C36.5107 42.0192 36.7467 41.8516 37.0201 41.7344C37.2936 41.6139 37.5979 41.5537 37.9332 41.5537C38.3499 41.5537 38.7177 41.6449 39.0367 41.8271C39.359 42.0094 39.6194 42.2699 39.818 42.6084C40.0198 42.9437 40.1712 43.3408 40.2721 43.7998C40.373 44.2555 40.4234 44.7666 40.4234 45.333C40.4234 45.8831 40.3762 46.3828 40.2818 46.832C40.1874 47.2812 40.0426 47.6784 39.8473 48.0234C39.652 48.3685 39.3915 48.637 39.066 48.8291ZM38.7877 42.6914C38.5501 42.4277 38.2652 42.2959 37.9332 42.2959C37.6012 42.2959 37.3163 42.4277 37.0787 42.6914C36.8411 42.9518 36.662 43.3066 36.5416 43.7559C36.4244 44.2018 36.3658 44.7178 36.3658 45.3037C36.3658 45.8994 36.4244 46.4268 36.5416 46.8857C36.662 47.3415 36.8411 47.7028 37.0787 47.9697C37.3163 48.2367 37.6012 48.3701 37.9332 48.3701C38.2652 48.3701 38.5501 48.2367 38.7877 47.9697C39.0253 47.7028 39.2027 47.3415 39.3199 46.8857C39.4404 46.4268 39.5006 45.8994 39.5006 45.3037C39.5006 44.7178 39.4404 44.2018 39.3199 43.7559C39.2027 43.3066 39.0253 42.9518 38.7877 42.6914ZM44.9305 48.8291C44.6082 49.0179 44.2306 49.1123 43.7977 49.1123C43.3647 49.1123 42.9855 49.0179 42.66 48.8291C42.3344 48.637 42.0724 48.3685 41.8738 48.0234C41.6785 47.6784 41.532 47.2812 41.4344 46.832C41.34 46.3828 41.2928 45.8831 41.2928 45.333C41.2928 44.8805 41.3237 44.4622 41.3855 44.0781C41.4507 43.694 41.5499 43.3457 41.6834 43.0332C41.8169 42.7207 41.9812 42.4554 42.1766 42.2373C42.3751 42.0192 42.6111 41.8516 42.8846 41.7344C43.158 41.6139 43.4624 41.5537 43.7977 41.5537C44.2143 41.5537 44.5822 41.6449 44.9012 41.8271C45.2234 42.0094 45.4839 42.2699 45.6824 42.6084C45.8842 42.9437 46.0356 43.3408 46.1365 43.7998C46.2374 44.2555 46.2879 44.7666 46.2879 45.333C46.2879 45.8831 46.2407 46.3828 46.1463 46.832C46.0519 47.2812 45.907 47.6784 45.7117 48.0234C45.5164 48.3685 45.256 48.637 44.9305 48.8291ZM44.6521 42.6914C44.4145 42.4277 44.1297 42.2959 43.7977 42.2959C43.4656 42.2959 43.1808 42.4277 42.9432 42.6914C42.7055 42.9518 42.5265 43.3066 42.4061 43.7559C42.2889 44.2018 42.2303 44.7178 42.2303 45.3037C42.2303 45.8994 42.2889 46.4268 42.4061 46.8857C42.5265 47.3415 42.7055 47.7028 42.9432 47.9697C43.1808 48.2367 43.4656 48.3701 43.7977 48.3701C44.1297 48.3701 44.4145 48.2367 44.6521 47.9697C44.8898 47.7028 45.0672 47.3415 45.1844 46.8857C45.3048 46.4268 45.365 45.8994 45.365 45.3037C45.365 44.7178 45.3048 44.2018 45.1844 43.7559C45.0672 43.3066 44.8898 42.9518 44.6521 42.6914Z" fill="white"/>
</g>
</g>
<defs>
<linearGradient id="paint0_linear_205_1644" x1="117" y1="-148" x2="117" y2="72.5" gradientUnits="userSpaceOnUse">
<stop stop-color="white"/>
<stop offset="1" stop-color="white" stop-opacity="0.01"/>
</linearGradient>
<clipPath id="clip0_205_1644">
<rect width="216" height="91" fill="white"/>
</clipPath>
<clipPath id="clip1_205_1644">
<rect x="18" y="35.5" width="37" height="20" rx="10" fill="white"/>
</clipPath>
</defs>
</svg>
