<svg width="110" height="106" viewBox="0 0 110 106" fill="none" xmlns="http://www.w3.org/2000/svg">
<rect width="110" height="106" rx="10" fill="#0A0E17"/>
<path d="M14 62.1787V43.8496H19.7177C22.1449 43.8496 23.9548 44.2041 25.1476 44.9131C26.3403 45.622 26.9367 46.8023 26.9367 48.4538C26.9367 48.7207 26.92 48.9834 26.8866 49.242C26.8533 49.5005 26.7782 49.7966 26.6614 50.1303C26.5447 50.4556 26.3904 50.7517 26.1985 51.0186C26.0067 51.2855 25.7398 51.5482 25.3978 51.8068C25.0558 52.057 24.6555 52.253 24.1967 52.3948C25.3311 52.6701 26.1985 53.1997 26.7991 53.9838C27.3996 54.7595 27.6999 55.7187 27.6999 56.8614C27.6999 58.5879 27.0868 59.9058 25.8607 60.8149C24.6429 61.7241 22.9539 62.1787 20.7936 62.1787H14ZM17.3906 59.7264H20.3307C22.9331 59.7264 24.2342 58.7089 24.2342 56.6737C24.2342 55.6478 23.9089 54.9096 23.2584 54.4592C22.6078 54.0088 21.6027 53.7836 20.2431 53.7836H17.3906V59.7264ZM17.3906 51.4189H20.2932C22.5369 51.4189 23.6587 50.564 23.6587 48.8541C23.6587 47.8949 23.3334 47.236 22.6828 46.8773C22.0406 46.5187 21.0147 46.3394 19.6051 46.3394H17.3906V51.4189Z" fill="white"/>
<path d="M60.6714 62.1787V43.8496H66.3891C68.8162 43.8496 70.6262 44.2041 71.819 44.9131C73.0117 45.622 73.6081 46.8023 73.6081 48.4538C73.6081 48.7207 73.5914 48.9834 73.558 49.242C73.5247 49.5005 73.4496 49.7966 73.3328 50.1303C73.216 50.4556 73.0617 50.7517 72.8699 51.0186C72.6781 51.2855 72.4112 51.5482 72.0692 51.8068C71.7272 52.057 71.3268 52.253 70.8681 52.3948C72.0025 52.6701 72.8699 53.1997 73.4704 53.9838C74.071 54.7595 74.3713 55.7187 74.3713 56.8614C74.3713 58.5879 73.7582 59.9058 72.5321 60.8149C71.3143 61.7241 69.6253 62.1787 67.465 62.1787H60.6714ZM64.0619 59.7264H67.0021C69.6045 59.7264 70.9056 58.7089 70.9056 56.6737C70.9056 55.6478 70.5803 54.9096 69.9297 54.4592C69.2792 54.0088 68.2741 53.7836 66.9145 53.7836H64.0619V59.7264ZM64.0619 51.4189H66.9646C69.2083 51.4189 70.3301 50.564 70.3301 48.8541C70.3301 47.8949 70.0048 47.236 69.3542 46.8773C68.712 46.5187 67.6861 46.3394 66.2764 46.3394H64.0619V51.4189Z" fill="white"/>
<path d="M76.4844 62.1787V43.8496H79.8749V62.1787H76.4844Z" fill="white"/>
<path d="M87.9353 62.1787V46.5646H82.593V43.8496H96.6557V46.5646H91.3384V62.1787H87.9353Z" fill="white"/>
<path d="M49.7107 62.1787V46.5646H44.3684V43.8496H58.4311V46.5646H53.1138V62.1787H49.7107Z" fill="white"/>
<path d="M41.8729 45.1809L33.738 45.1807C32.166 45.1807 30.8916 46.4551 30.8916 48.0271V48.0271C30.8916 49.5991 32.166 50.8734 33.738 50.8734H39.4936C40.4287 50.8734 41.1867 51.6315 41.1867 52.5665V52.5665C41.1867 53.5016 40.4287 54.2596 39.4936 54.2596H34.1734C32.3609 54.2596 30.8916 55.7289 30.8916 57.5414V57.5414C30.8916 59.3539 32.3609 60.8232 34.1734 60.8232H41.8729" stroke="white" stroke-width="3"/>
</svg>
