<svg width="277" height="171" viewBox="0 0 277 171" fill="none" xmlns="http://www.w3.org/2000/svg">
<circle cx="47" cy="7" r="4" fill="white" fill-opacity="0.4"/>
<circle cx="47" cy="23" r="4" fill="white" fill-opacity="0.4"/>
<circle cx="47" cy="39" r="4" fill="white" fill-opacity="0.4"/>
<circle cx="47" cy="55" r="4" fill="white" fill-opacity="0.4"/>
<circle cx="47" cy="71" r="4" fill="white" fill-opacity="0.4"/>
<circle cx="47" cy="87" r="4" fill="white" fill-opacity="0.4"/>
<circle cx="47" cy="103" r="4" fill="white" fill-opacity="0.4"/>
<circle cx="47" cy="119" r="4" fill="white" fill-opacity="0.4"/>
<circle cx="47" cy="135" r="4" fill="white" fill-opacity="0.4"/>
<circle cx="63" cy="7" r="4" fill="white" fill-opacity="0.4"/>
<circle cx="63" cy="23" r="4" fill="white" fill-opacity="0.4"/>
<circle cx="63" cy="39" r="4" fill="white" fill-opacity="0.4"/>
<circle cx="63" cy="55" r="4" fill="white" fill-opacity="0.4"/>
<circle cx="63" cy="71" r="4" fill="white" fill-opacity="0.4"/>
<circle cx="63" cy="87" r="4" fill="white" fill-opacity="0.4"/>
<circle cx="63" cy="103" r="4" fill="white" fill-opacity="0.4"/>
<circle cx="63" cy="119" r="4" fill="white" fill-opacity="0.4"/>
<circle cx="63" cy="135" r="4" fill="white" fill-opacity="0.4"/>
<circle cx="79" cy="7" r="4" fill="white" fill-opacity="0.4"/>
<circle cx="79" cy="23" r="4" fill="white" fill-opacity="0.4"/>
<circle cx="79" cy="39" r="4" fill="white" fill-opacity="0.4"/>
<circle cx="79" cy="55" r="4" fill="white" fill-opacity="0.4"/>
<circle cx="79" cy="71" r="4" fill="white" fill-opacity="0.4"/>
<circle cx="79" cy="87" r="4" fill="white" fill-opacity="0.4"/>
<circle cx="79" cy="103" r="4" fill="white" fill-opacity="0.4"/>
<circle cx="79" cy="119" r="4" fill="white" fill-opacity="0.4"/>
<circle cx="79" cy="135" r="4" fill="white" fill-opacity="0.4"/>
<circle cx="95" cy="7" r="4" fill="white" fill-opacity="0.4"/>
<circle cx="95" cy="23" r="4" fill="white" fill-opacity="0.4"/>
<circle cx="95" cy="39" r="4" fill="white" fill-opacity="0.4"/>
<circle cx="95" cy="55" r="4" fill="white" fill-opacity="0.4"/>
<circle cx="95" cy="71" r="4" fill="white" fill-opacity="0.4"/>
<circle cx="95" cy="87" r="4" fill="white" fill-opacity="0.4"/>
<circle cx="95" cy="103" r="4" fill="white" fill-opacity="0.4"/>
<circle cx="95" cy="119" r="4" fill="white" fill-opacity="0.4"/>
<circle cx="95" cy="135" r="4" fill="white" fill-opacity="0.4"/>
<circle cx="111" cy="7" r="4" fill="white" fill-opacity="0.4"/>
<circle cx="111" cy="23" r="4" fill="white" fill-opacity="0.4"/>
<circle cx="111" cy="39" r="4" fill="white" fill-opacity="0.4"/>
<circle cx="111" cy="55" r="4" fill="white" fill-opacity="0.4"/>
<circle cx="111" cy="71" r="4" fill="white" fill-opacity="0.4"/>
<circle cx="111" cy="87" r="4" fill="white" fill-opacity="0.4"/>
<circle cx="111" cy="103" r="4" fill="white" fill-opacity="0.4"/>
<circle cx="111" cy="119" r="4" fill="white" fill-opacity="0.4"/>
<circle cx="111" cy="135" r="4" fill="white" fill-opacity="0.4"/>
<circle cx="127" cy="7" r="4" fill="white" fill-opacity="0.4"/>
<circle cx="127" cy="23" r="4" fill="white" fill-opacity="0.4"/>
<circle cx="127" cy="39" r="4" fill="white" fill-opacity="0.4"/>
<circle cx="127" cy="55" r="4" fill="white" fill-opacity="0.4"/>
<circle cx="127" cy="71" r="4" fill="white" fill-opacity="0.4"/>
<circle cx="127" cy="87" r="4" fill="white" fill-opacity="0.4"/>
<circle cx="127" cy="103" r="4" fill="white" fill-opacity="0.4"/>
<circle cx="127" cy="119" r="4" fill="white" fill-opacity="0.4"/>
<circle cx="127" cy="135" r="4" fill="white" fill-opacity="0.4"/>
<circle cx="143" cy="7" r="4" fill="white" fill-opacity="0.4"/>
<circle cx="143" cy="23" r="4" fill="white" fill-opacity="0.4"/>
<circle cx="143" cy="39" r="4" fill="white" fill-opacity="0.4"/>
<circle cx="143" cy="55" r="4" fill="white" fill-opacity="0.4"/>
<circle cx="143" cy="71" r="4" fill="white" fill-opacity="0.4"/>
<circle cx="143" cy="87" r="4" fill="white" fill-opacity="0.4"/>
<circle cx="143" cy="103" r="4" fill="white" fill-opacity="0.4"/>
<circle cx="143" cy="119" r="4" fill="white" fill-opacity="0.4"/>
<circle cx="143" cy="135" r="4" fill="white" fill-opacity="0.4"/>
<circle cx="159" cy="7" r="4" fill="white" fill-opacity="0.4"/>
<circle cx="175" cy="7" r="4" fill="white" fill-opacity="0.4"/>
<circle cx="159" cy="23" r="4" fill="white" fill-opacity="0.4"/>
<circle cx="159" cy="39" r="4" fill="white" fill-opacity="0.4"/>
<circle cx="159" cy="55" r="4" fill="white" fill-opacity="0.4"/>
<circle cx="159" cy="71" r="4" fill="white" fill-opacity="0.4"/>
<circle cx="159" cy="87" r="4" fill="white" fill-opacity="0.4"/>
<circle cx="159" cy="103" r="4" fill="white" fill-opacity="0.4"/>
<circle cx="159" cy="119" r="4" fill="white" fill-opacity="0.4"/>
<circle cx="159" cy="135" r="4" fill="white" fill-opacity="0.4"/>
<circle cx="175" cy="23" r="4" fill="white" fill-opacity="0.4"/>
<circle cx="175" cy="39" r="4" fill="white" fill-opacity="0.4"/>
<circle cx="175" cy="55" r="4" fill="white" fill-opacity="0.4"/>
<circle cx="175" cy="71" r="4" fill="white" fill-opacity="0.4"/>
<circle cx="175" cy="87" r="4" fill="white" fill-opacity="0.4"/>
<circle cx="175" cy="103" r="4" fill="white" fill-opacity="0.4"/>
<circle cx="175" cy="119" r="4" fill="white" fill-opacity="0.4"/>
<circle cx="175" cy="135" r="4" fill="white" fill-opacity="0.4"/>
<rect x="277" y="171" width="277" height="171" transform="rotate(-180 277 171)" fill="url(#paint0_linear_0_1)"/>
<defs>
<linearGradient id="paint0_linear_0_1" x1="411" y1="213" x2="409" y2="395" gradientUnits="userSpaceOnUse">
<stop stop-color="#0A0E17"/>
<stop offset="1" stop-color="#0A0E17" stop-opacity="0"/>
</linearGradient>
</defs>
</svg>
