<svg width="95" height="88" viewBox="0 0 95 88" fill="none" xmlns="http://www.w3.org/2000/svg">
<g filter="url(#filter0_i_24_230)">
<path d="M59 23C59 35.7025 48.7025 46 36 46C23.2975 46 13 35.7025 13 23C13 10.2975 23.2975 0 36 0H57C58.1046 0 59 0.895431 59 2V23Z" fill="white"/>
</g>
<path d="M44.5 28.0212C44.5 30.143 43.6045 32.1778 42.0104 33.6781C40.4163 35.1784 38.2543 36.0212 36 36.0212C33.7457 36.0212 31.5837 35.1784 29.9896 33.6781C28.3955 32.1778 27.5 30.143 27.5 28.0212H30.4771C30.4771 29.3998 31.059 30.722 32.0947 31.6968C33.1305 32.6716 34.5352 33.2193 36 33.2193C37.4648 33.2193 38.8695 32.6716 39.9053 31.6968C40.941 30.722 41.5229 29.3998 41.5229 28.0212H44.5Z" fill="#F7AB1F"/>
<path d="M75 85.5H0V77.5C0 63.1406 11.6406 51.5 26 51.5H49C63.3594 51.5 75 63.1406 75 77.5V85.5Z" fill="white"/>
<g filter="url(#filter1_b_24_230)">
<path d="M55 55C55 51.134 58.134 48 62 48H95V81C95 84.866 91.866 88 88 88H62C58.134 88 55 84.866 55 81V55Z" fill="#F7AB1F" fill-opacity="0.4"/>
<path d="M55.5 55C55.5 51.4101 58.4101 48.5 62 48.5H94.5V81C94.5 84.5899 91.5899 87.5 88 87.5H62C58.4101 87.5 55.5 84.5899 55.5 81V55Z" stroke="#F7AB1F" stroke-opacity="0.5"/>
</g>
<rect x="64" y="57.5" width="13" height="3" fill="white"/>
<rect x="64" y="66.5" width="22" height="3" fill="white"/>
<rect x="64" y="75.5" width="22" height="3" fill="white"/>
<defs>
<filter id="filter0_i_24_230" x="13" y="-2" width="46" height="48" filterUnits="userSpaceOnUse" color-interpolation-filters="sRGB">
<feFlood flood-opacity="0" result="BackgroundImageFix"/>
<feBlend mode="normal" in="SourceGraphic" in2="BackgroundImageFix" result="shape"/>
<feColorMatrix in="SourceAlpha" type="matrix" values="0 0 0 0 0 0 0 0 0 0 0 0 0 0 0 0 0 0 127 0" result="hardAlpha"/>
<feOffset dy="-2"/>
<feGaussianBlur stdDeviation="5"/>
<feComposite in2="hardAlpha" operator="arithmetic" k2="-1" k3="1"/>
<feColorMatrix type="matrix" values="0 0 0 0 0 0 0 0 0 0 0 0 0 0 0 0 0 0 0.3 0"/>
<feBlend mode="normal" in2="shape" result="effect1_innerShadow_24_230"/>
</filter>
<filter id="filter1_b_24_230" x="45" y="38" width="60" height="60" filterUnits="userSpaceOnUse" color-interpolation-filters="sRGB">
<feFlood flood-opacity="0" result="BackgroundImageFix"/>
<feGaussianBlur in="BackgroundImage" stdDeviation="5"/>
<feComposite in2="SourceAlpha" operator="in" result="effect1_backgroundBlur_24_230"/>
<feBlend mode="normal" in="SourceGraphic" in2="effect1_backgroundBlur_24_230" result="shape"/>
</filter>
</defs>
</svg>
