<svg width="14" height="14" viewBox="0 0 14 14" fill="none" xmlns="http://www.w3.org/2000/svg">
<circle cx="7" cy="7" r="6.5" stroke="#F7AB1F"/>
<path d="M6.2912 8.404L5.9912 2.788H7.9712L7.6712 8.404H6.2912ZM6.9752 11.632C6.6632 11.632 6.4032 11.524 6.1952 11.308C5.9872 11.092 5.8832 10.832 5.8832 10.528C5.8832 10.208 5.9872 9.944 6.1952 9.736C6.4032 9.52 6.6632 9.412 6.9752 9.412C7.2952 9.412 7.5552 9.52 7.7552 9.736C7.9632 9.944 8.0672 10.208 8.0672 10.528C8.0672 10.832 7.9632 11.092 7.7552 11.308C7.5552 11.524 7.2952 11.632 6.9752 11.632Z" fill="#F7AB1F"/>
</svg>
