<svg width="14" height="13" viewBox="0 0 14 13" fill="none" xmlns="http://www.w3.org/2000/svg">
<path d="M5.5 11.5V11H8.5V11.5C8.5 12.3284 7.82843 13 7 13C6.17157 13 5.5 12.3284 5.5 11.5Z" fill="#fff"/>
<path d="M12.2929 9.29289L11.1004 8.10043C11.0361 8.03613 11 7.94891 11 7.85797V5C11 2.79086 9.20914 1 7 1C4.79086 1 3 2.79086 3 5V7.85797C3 7.94891 2.96387 8.03613 2.89957 8.10043L1.70711 9.29289C1.07714 9.92286 1.52331 11 2.41421 11H11.5858C12.4767 11 12.9229 9.92286 12.2929 9.29289Z" stroke="#fff"/>
</svg>
