<svg width="93" height="84" viewBox="0 0 93 84" fill="none" xmlns="http://www.w3.org/2000/svg">
<circle cx="42" cy="42" r="42" fill="white"/>
<circle cx="42" cy="42" r="42" fill="white"/>
<path d="M61.3236 28.2347C64.2915 32.96 65.5202 38.5716 64.7984 44.1047C64.0765 49.6378 61.4492 54.7464 57.3684 58.5521C53.2876 62.3577 48.0082 64.6225 42.4383 64.9568L40.5 67.5L29.5 56.5C34.5 58.5 38 58.7783 42.0673 58.7783C46.2008 58.5301 50.1186 56.8495 53.1469 54.0253C56.1753 51.2012 58.125 47.4101 58.6607 43.304C59.1964 39.1979 58.2846 35.0335 56.0821 31.5269L61.3236 28.2347Z" fill="#F7AB1F"/>
<path d="M22.6764 55.2653C19.7085 50.5401 18.4798 44.9284 19.2016 39.3953C19.9235 33.8622 22.5507 28.7536 26.6316 24.9479C30.7124 21.1423 35.9918 18.8775 41.5617 18.5432L43.5 16L54.5 27C49.5 25 46 24.7217 41.9326 24.7217C37.7992 24.9699 33.8814 26.6505 30.8531 29.4747C27.8247 32.2988 25.875 36.0899 25.3393 40.196C24.8036 44.3021 25.7154 48.4665 27.9179 51.9731L22.6764 55.2653Z" fill="#F7AB1F"/>
<g filter="url(#filter0_b_25_256)">
<circle cx="72" cy="60" r="20" fill="#F7AB1F" fill-opacity="0.4"/>
<circle cx="72" cy="60" r="20.5" stroke="#F7AB1F" stroke-opacity="0.5"/>
</g>
<defs>
<filter id="filter0_b_25_256" x="41" y="29" width="62" height="62" filterUnits="userSpaceOnUse" color-interpolation-filters="sRGB">
<feFlood flood-opacity="0" result="BackgroundImageFix"/>
<feGaussianBlur in="BackgroundImage" stdDeviation="5"/>
<feComposite in2="SourceAlpha" operator="in" result="effect1_backgroundBlur_25_256"/>
<feBlend mode="normal" in="SourceGraphic" in2="effect1_backgroundBlur_25_256" result="shape"/>
</filter>
</defs>
</svg>
