<svg width="11" height="19" viewBox="0 0 11 19" fill="none" xmlns="http://www.w3.org/2000/svg">
<path d="M4.68 18.76V0H6.32V18.76H4.68ZM0.56 16.38V14.28H6.58C6.96667 14.28 7.3 14.1867 7.58 14C7.87333 13.8133 8.1 13.5733 8.26 13.28C8.43333 12.9733 8.52 12.6533 8.52 12.32C8.52 11.96 8.44 11.6333 8.28 11.34C8.12 11.0467 7.89333 10.8133 7.6 10.64C7.32 10.4667 6.99333 10.38 6.62 10.38H4.12C3.33333 10.38 2.62667 10.22 2 9.9C1.38667 9.56667 0.9 9.10667 0.54 8.52C0.18 7.93333 0 7.24 0 6.44C0 5.64 0.173333 4.94 0.52 4.34C0.866667 3.72667 1.34 3.24667 1.94 2.9C2.54 2.55333 3.22 2.38 3.98 2.38H10V4.48H4.2C3.85333 4.48 3.54 4.56667 3.26 4.74C2.98 4.91333 2.76 5.14 2.6 5.42C2.45333 5.7 2.38 6 2.38 6.32C2.38 6.65333 2.45333 6.96 2.6 7.24C2.76 7.50667 2.97333 7.72667 3.24 7.9C3.52 8.06 3.83333 8.14 4.18 8.14H6.74C7.59333 8.14 8.32667 8.30667 8.94 8.64C9.56667 8.97333 10.0467 9.43333 10.38 10.02C10.7267 10.6067 10.9 11.28 10.9 12.04C10.9 12.9333 10.72 13.7067 10.36 14.36C10.0133 15 9.53333 15.5 8.92 15.86C8.32 16.2067 7.64 16.38 6.88 16.38H0.56Z" fill="white"/>
</svg>
