<svg width="18" height="17" viewBox="0 0 18 17" fill="none" xmlns="http://www.w3.org/2000/svg">
<path d="M0.5 0.399999C0.5 0.179085 0.679086 0 0.9 0H2.21C2.43091 0 2.61 0.179086 2.61 0.4V16.0516C2.61 16.2725 2.43091 16.4516 2.21 16.4516H0.9C0.679086 16.4516 0.5 16.2725 0.5 16.0516V0.399999Z" fill="white"/>
<path d="M7.62743 1.16521C3.91348 0.634658 2.14355 3.35876 2.14355 3.35876V12.133C2.14355 12.133 4.94574 9.55631 7.62743 9.93941C9.52367 10.2103 11.2043 11.9526 13.1113 12.133C16.1539 12.4208 17.4984 11.0362 17.4984 11.0362V2.26199C16.4016 2.81039 15.8532 3.35876 13.1113 3.35876C10.3694 3.35876 9.52367 1.4361 7.62743 1.16521Z" stroke="white" stroke-linejoin="round"/>
<path d="M2.14355 6.21032C2.14355 6.21032 3.91348 3.48622 7.62743 4.01678C9.52367 4.28766 10.3694 6.21032 13.1113 6.21032C15.8532 6.21032 16.4016 5.66195 17.4984 5.11355" stroke="white" stroke-width="0.2" stroke-linejoin="round"/>
<path d="M2.14355 9.17126C2.14355 9.17126 3.91348 6.44716 7.62743 6.97771C9.52367 7.2486 10.3694 9.17126 13.1113 9.17126C15.8532 9.17126 16.4016 8.62289 17.4984 8.07449" stroke="white" stroke-width="0.2" stroke-linejoin="round"/>
<path d="M7.29834 1.09668V9.87087" stroke="white" stroke-width="0.2"/>
<path d="M12.3452 3.29004V12.0642" stroke="white" stroke-width="0.2"/>
<path d="M12.3007 6.03188V3.28994L8.73614 1.64478L7.29834 1.59961V3.89961L9.28453 4.60607L10.3702 5.48349L12.0265 6.14156L12.3007 6.03188Z" fill="white"/>
<path d="M7.2992 9.87129L7.29834 6.96484L8.17576 7.12935L9.27253 7.67774L11.4661 8.88419L12.3015 9.15839V12.0648L10.3693 10.9681L7.2992 9.87129Z" fill="white"/>
<path d="M14.2089 6.25199L12.3452 6.08405V9.21328H13.1121L14.7573 9.1036L16.4024 8.66489L17.1015 8.20037V5.40039L15.5015 6.00037L14.2089 6.25199Z" fill="white"/>
<path d="M7.24702 6.96437V3.94824H6.53412L4.34057 4.38695L2.6001 5.59985V8.59985L3.79218 7.67727L5.43735 7.01921L7.24702 6.96437Z" fill="white"/>
</svg>
