<svg width="22" height="22" viewBox="0 0 22 22" fill="none" xmlns="http://www.w3.org/2000/svg">
<circle cx="11" cy="11" r="10.5" stroke="white"/>
<path d="M15.5 11C15.5 13.983 14.9494 16.6594 14.0804 18.5713C13.1908 20.5283 12.0641 21.5 11 21.5C9.93593 21.5 8.80921 20.5283 7.91965 18.5713C7.0506 16.6594 6.5 13.983 6.5 11C6.5 8.01701 7.0506 5.34063 7.91965 3.42873C8.80921 1.47169 9.93593 0.5 11 0.5C12.0641 0.5 13.1908 1.47169 14.0804 3.42873C14.9494 5.34063 15.5 8.01701 15.5 11Z" stroke="white"/>
<line x1="1" y1="10.5" x2="22" y2="10.5" stroke="white"/>
<path d="M3 4.5C3 4.5 5.5 6 11 6C16.5 6 19 4.5 19 4.5" stroke="white"/>
<path d="M19 17.5C19 17.5 16.5 16 11 16C5.5 16 3 17.5 3 17.5" stroke="white"/>
</svg>
