<svg width="20" height="20" viewBox="0 0 20 20" fill="none" xmlns="http://www.w3.org/2000/svg">
<circle cx="10" cy="10" r="9.5" stroke="#888888"/>
<path d="M14.046 10C14.046 12.7069 13.5463 15.1332 12.7595 16.8642C11.9522 18.6402 10.9391 19.5 10.0005 19.5C9.06198 19.5 8.0489 18.6402 7.24159 16.8642C6.45481 15.1332 5.95508 12.7069 5.95508 10C5.95508 7.29315 6.45481 4.86677 7.24159 3.13583C8.0489 1.35976 9.06198 0.5 10.0005 0.5C10.9391 0.5 11.9522 1.35976 12.7595 3.13583C13.5463 4.86677 14.046 7.29315 14.046 10Z" stroke="#888888"/>
<line x1="0.908203" y1="9.5" x2="19.9991" y2="9.5" stroke="#888888"/>
<path d="M2.72656 4.09082C2.72656 4.09082 4.99929 5.45446 9.99929 5.45446C14.9993 5.45446 17.272 4.09082 17.272 4.09082" stroke="#888888"/>
<path d="M17.2734 15.9092C17.2734 15.9092 15.0007 14.5455 10.0007 14.5455C5.00071 14.5455 2.72798 15.9092 2.72798 15.9092" stroke="#888888"/>
</svg>
