<svg width="16" height="16" viewBox="0 0 16 16" fill="none" xmlns="http://www.w3.org/2000/svg">
<path fill-rule="evenodd" clip-rule="evenodd" d="M7.875 2.875H1.75C0.783502 2.875 0 3.6585 0 4.625V14.25C0 15.2165 0.783502 16 1.75 16H11.375C12.3415 16 13.125 15.2165 13.125 14.25V9H11.375V14.25H1.75L1.75 4.625H7.875V2.875Z" fill="#fff"/>
<path d="M7.44286 7.63112C7.17009 7.86979 7.14246 8.28438 7.38112 8.55714C7.61979 8.82991 8.03438 8.85754 8.30714 8.61888L7.44286 7.63112ZM15.5298 2.04365C15.5539 1.68202 15.2803 1.36931 14.9187 1.3452L9.02548 0.952325C8.66385 0.928216 8.35114 1.20183 8.32704 1.56347C8.30293 1.9251 8.57654 2.23781 8.93818 2.26192L14.1766 2.61114L13.8273 7.84952C13.8032 8.21115 14.0768 8.52386 14.4385 8.54797C14.8001 8.57207 15.1128 8.29846 15.1369 7.93682L15.5298 2.04365ZM8.30714 8.61888L15.3071 2.49388L14.4429 1.50612L7.44286 7.63112L8.30714 8.61888Z" fill="#fff"/>
</svg>
