<svg width="17" height="15" viewBox="0 0 17 15" fill="none" xmlns="http://www.w3.org/2000/svg">
<path d="M3.4 7.74C2.78667 7.74 2.22 7.60667 1.7 7.34C1.19333 7.06 0.78 6.68667 0.46 6.22C0.153333 5.75333 0 5.22667 0 4.64V3.08C0 2.49333 0.153333 1.96667 0.46 1.5C0.78 1.03333 1.19333 0.666666 1.7 0.4C2.22 0.133333 2.78667 0 3.4 0C4.02667 0 4.59333 0.133333 5.1 0.4C5.62 0.666666 6.03333 1.03333 6.34 1.5C6.64667 1.96667 6.8 2.49333 6.8 3.08V4.64C6.8 5.22667 6.64667 5.75333 6.34 6.22C6.03333 6.68667 5.62 7.06 5.1 7.34C4.59333 7.60667 4.02667 7.74 3.4 7.74ZM3.42 6.1C3.7 6.1 3.96 6.03333 4.2 5.9C4.45333 5.75333 4.65333 5.56 4.8 5.32C4.96 5.06667 5.04 4.78 5.04 4.46V3.26C5.04 2.94 4.96 2.66 4.8 2.42C4.65333 2.16667 4.45333 1.96667 4.2 1.82C3.96 1.67333 3.7 1.6 3.42 1.6C3.12667 1.6 2.85333 1.67333 2.6 1.82C2.36 1.96667 2.16 2.16667 2 2.42C1.85333 2.66 1.78 2.94 1.78 3.26V4.46C1.78 4.78 1.85333 5.06667 2 5.32C2.16 5.56 2.36 5.75333 2.6 5.9C2.85333 6.03333 3.12667 6.1 3.42 6.1ZM12.9 14.48C12.2867 14.48 11.72 14.3467 11.2 14.08C10.68 13.8 10.2667 13.4267 9.96 12.96C9.65333 12.4933 9.5 11.9733 9.5 11.4V9.84C9.5 9.25333 9.65333 8.72667 9.96 8.26C10.2667 7.78 10.68 7.40667 11.2 7.14C11.72 6.87333 12.2867 6.74 12.9 6.74C13.5133 6.74 14.0733 6.87333 14.58 7.14C15.1 7.40667 15.5133 7.78 15.82 8.26C16.14 8.72667 16.3 9.25333 16.3 9.84V11.4C16.3 11.9733 16.14 12.4933 15.82 12.96C15.5133 13.4267 15.1 13.8 14.58 14.08C14.0733 14.3467 13.5133 14.48 12.9 14.48ZM12.92 12.84C13.2 12.84 13.46 12.7733 13.7 12.64C13.9533 12.4933 14.1533 12.3 14.3 12.06C14.46 11.82 14.54 11.5333 14.54 11.2V10C14.54 9.68 14.46 9.4 14.3 9.16C14.1533 8.90667 13.9533 8.71333 13.7 8.58C13.46 8.43333 13.2 8.36 12.92 8.36C12.6267 8.36 12.3533 8.43333 12.1 8.58C11.86 8.71333 11.66 8.90667 11.5 9.16C11.3533 9.4 11.28 9.68 11.28 10V11.2C11.28 11.5333 11.3533 11.82 11.5 12.06C11.66 12.3 11.86 12.4933 12.1 12.64C12.3533 12.7733 12.6267 12.84 12.92 12.84ZM2.46 14.24L11.98 0.239999H13.8L4.28 14.24H2.46Z" fill="white"/>
</svg>
