<svg width="20" height="20" viewBox="0 0 20 20" fill="none" xmlns="http://www.w3.org/2000/svg">
<path d="M8.85412 14.1294C8.85412 13.826 8.93212 13.605 9.08812 13.4664C9.25279 13.319 9.46079 13.2454 9.71212 13.2454C9.96345 13.2454 10.1715 13.319 10.3361 13.4664C10.5008 13.605 10.5831 13.826 10.5831 14.1294C10.5831 14.4327 10.5008 14.658 10.3361 14.8054C10.1715 14.944 9.96345 15.0134 9.71212 15.0134C9.46079 15.0134 9.25279 14.944 9.08812 14.8054C8.93212 14.658 8.85412 14.4327 8.85412 14.1294ZM12.4031 7.13536C12.4031 7.49936 12.3468 7.83303 12.2341 8.13636C12.1215 8.43103 11.9785 8.71269 11.8051 8.98136C11.6405 9.24136 11.4585 9.49269 11.2591 9.73536C11.0685 9.96936 10.8865 10.2077 10.7131 10.4504C10.5485 10.6844 10.4098 10.927 10.2971 11.1784C10.1845 11.4297 10.1281 11.6984 10.1281 11.9844H9.29612C9.28746 11.9324 9.28312 11.8804 9.28312 11.8284C9.28312 11.7764 9.28312 11.7244 9.28312 11.6724C9.28312 11.1177 9.37846 10.6497 9.56912 10.2684C9.76846 9.87836 9.98512 9.52736 10.2191 9.21536C10.4618 8.89469 10.6785 8.58269 10.8691 8.27936C11.0685 7.97603 11.1681 7.62936 11.1681 7.23936C11.1681 7.04869 11.1335 6.87103 11.0641 6.70636C11.0035 6.54169 10.9168 6.39869 10.8041 6.27736C10.6915 6.14736 10.5571 6.04769 10.4011 5.97836C10.2451 5.90903 10.0761 5.87436 9.89412 5.87436C9.48679 5.87436 9.17046 5.99569 8.94512 6.23836C8.71979 6.47236 8.55946 6.84936 8.46412 7.36936L7.33312 7.09636C7.39379 6.78436 7.49345 6.49403 7.63212 6.22536C7.77945 5.94803 7.96145 5.70969 8.17812 5.51036C8.39479 5.31103 8.64612 5.15503 8.93212 5.04236C9.22679 4.92969 9.55179 4.87336 9.90712 4.87336C10.3751 4.87336 10.7695 4.94269 11.0901 5.08136C11.4108 5.21136 11.6665 5.38469 11.8571 5.60136C12.0565 5.81803 12.1951 6.06069 12.2731 6.32936C12.3598 6.59803 12.4031 6.86669 12.4031 7.13536Z" fill="white"/>
<circle cx="10" cy="10" r="9.4" stroke="white" stroke-width="1.2"/>
</svg>
