<svg width="74" height="74" viewBox="0 0 74 74" fill="none" xmlns="http://www.w3.org/2000/svg">
<path d="M2.74711 40.2845C1.32323 40.4211 0.0487091 39.3768 0.0120881 37.9469C-0.164921 31.0356 1.5984 24.1937 5.12714 18.2085C9.09552 11.4776 15.0929 6.1758 22.2597 3.06295C29.4265 -0.0498925 37.3948 -0.813976 45.0225 0.880216C52.6503 2.57441 59.5459 6.6399 64.721 12.494C69.8962 18.3481 73.0852 25.6903 73.8311 33.4683C74.5769 41.2462 72.8412 49.0606 68.8729 55.7915C64.9045 62.5224 58.9071 67.8242 51.7403 70.937C45.3675 73.705 38.3609 74.6158 31.5236 73.5925C30.1089 73.3808 29.2289 71.9878 29.539 70.5914C29.8492 69.195 31.2322 68.3256 32.6491 68.5212C38.4152 69.3171 44.3075 68.5179 49.6767 66.1859C55.8401 63.5088 60.9979 58.9493 64.4107 53.1607C67.8235 47.3721 69.3161 40.6517 68.6747 33.9627C68.0333 27.2737 65.2907 20.9594 60.8401 15.9248C56.3895 10.8903 50.4592 7.394 43.8994 5.93699C37.3395 4.47998 30.4868 5.13709 24.3233 7.81414C18.1599 10.4912 13.0021 15.0507 9.58934 20.8393C6.61633 25.8819 5.10047 31.6317 5.18318 37.4518C5.2035 38.8821 4.171 40.148 2.74711 40.2845Z" fill="url(#paint0_linear_68_276)"/>
<defs>
<linearGradient id="paint0_linear_68_276" x1="70.7625" y1="20.8125" x2="6.9375" y2="61.05" gradientUnits="userSpaceOnUse">
<stop offset="0.0116779" stop-color="#F7AB1F"/>
<stop offset="0.547403" stop-color="#F7AB1F" stop-opacity="0.6"/>
<stop offset="0.9999" stop-color="white" stop-opacity="0.01"/>
<stop offset="1" stop-color="white" stop-opacity="0"/>
</linearGradient>
</defs>
</svg>
