<svg width="16" height="15" viewBox="0 0 16 15" fill="none" xmlns="http://www.w3.org/2000/svg">
<path d="M7.0482 0.927311C7.34755 0.00600022 8.65096 0.0060007 8.95031 0.927311L10.0199 4.21911C10.1538 4.63113 10.5377 4.91009 10.9709 4.91009H14.4321C15.4009 4.91009 15.8036 6.14971 15.0199 6.71911L12.2198 8.75355C11.8693 9.00819 11.7226 9.45956 11.8565 9.87158L12.926 13.1634C13.2254 14.0847 12.1709 14.8508 11.3872 14.2814L8.58704 12.247C8.23655 11.9923 7.76195 11.9923 7.41147 12.247L4.6113 14.2814C3.82758 14.8508 2.7731 14.0847 3.07246 13.1634L4.14202 9.87158C4.2759 9.45956 4.12924 9.00819 3.77875 8.75355L0.978585 6.71911C0.194871 6.14971 0.597647 4.91009 1.56637 4.91009H5.02757C5.4608 4.91009 5.84475 4.63113 5.97863 4.21911L7.0482 0.927311Z" fill="#F7AB1F"/>
</svg>
