<svg width="44" height="48" viewBox="0 0 44 48" fill="none" xmlns="http://www.w3.org/2000/svg">
<path d="M3.28991 14.1616L20.365 3.06273C21.3592 2.4165 22.6408 2.4165 23.635 3.06273L40.7101 14.1616C41.3168 14.5559 41.3168 15.4441 40.7101 15.8384L23.635 26.9373C22.6408 27.5835 21.3592 27.5835 20.365 26.9373L3.28991 15.8384C2.68323 15.4441 2.68323 14.5559 3.28991 14.1616Z" fill="#F741CF" stroke="#F741CF" stroke-width="4"/>
<path d="M3.3568 23.652L20.41 12.9937C21.3828 12.3857 22.6172 12.3857 23.59 12.9937L40.6432 23.652C41.2699 24.0437 41.2699 24.9563 40.6432 25.348L23.59 36.0063C22.6172 36.6143 21.3828 36.6143 20.41 36.0063L3.3568 25.348C2.73013 24.9563 2.73013 24.0437 3.3568 23.652Z" stroke="#F741CF" stroke-width="4"/>
<path d="M35 28.5L40.6987 32.1635C41.3092 32.5559 41.3115 33.4476 40.7029 33.8431L23.635 44.9373C22.6408 45.5835 21.3592 45.5835 20.365 44.9373L3.29705 33.8431C2.68855 33.4476 2.69079 32.5559 3.30128 32.1635L9 28.5" stroke="#F741CF" stroke-width="4"/>
</svg>
