<svg width="17" height="16" viewBox="0 0 17 16" fill="none" xmlns="http://www.w3.org/2000/svg">
<path d="M7.48374 1.92731C7.78309 1.006 9.0865 1.006 9.38586 1.92731L10.4554 5.21911C10.5893 5.63113 10.9733 5.91009 11.4065 5.91009H14.8677C15.8364 5.91009 16.2392 7.14971 15.4555 7.71911L12.6553 9.75355C12.3048 10.0082 12.1582 10.4596 12.292 10.8716L13.3616 14.1634C13.6609 15.0847 12.6065 15.8508 11.8228 15.2814L9.02258 13.247C8.6721 12.9923 8.1975 12.9923 7.84701 13.247L5.04684 15.2814C4.26313 15.8508 3.20865 15.0847 3.508 14.1634L4.57757 10.8716C4.71145 10.4596 4.56479 10.0082 4.2143 9.75355L1.41413 7.71911C0.630418 7.14971 1.03319 5.91009 2.00192 5.91009H5.46312C5.89634 5.91009 6.2803 5.63113 6.41417 5.21911L7.48374 1.92731Z" stroke="#F7AB1F"/>
</svg>
