<svg width="26" height="55" viewBox="0 0 26 55" fill="none" xmlns="http://www.w3.org/2000/svg">
<path d="M1.12611 23.2455L20 0.5L13.5 20.5L24.7238 29.8531C25.1512 30.2093 25.2057 30.8458 24.8451 31.2695L5.5 54L11.5 33.5L1.24205 24.6409C0.82988 24.2849 0.778338 23.6646 1.12611 23.2455Z" fill="#FBF628"/>
<path d="M20 0.5L20.4755 0.654543C20.5497 0.426408 20.4513 0.177763 20.2412 0.0620352C20.0311 -0.0536928 19.7684 -0.00388962 19.6152 0.180714L20 0.5ZM1.12611 23.2455L0.741324 22.9262H0.741324L1.12611 23.2455ZM1.24205 24.6409L0.915237 25.0193L0.915237 25.0193L1.24205 24.6409ZM11.5 33.5L11.9799 33.6404L12.0702 33.3318L11.8268 33.1216L11.5 33.5ZM5.5 54L5.02013 53.8596L5.88077 54.3241L5.5 54ZM24.8451 31.2695L25.2259 31.5935L24.8451 31.2695ZM24.7238 29.8531L25.0439 29.469H25.0439L24.7238 29.8531ZM13.5 20.5L13.0245 20.3455L12.9199 20.6674L13.1799 20.8841L13.5 20.5ZM19.6152 0.180714L0.741324 22.9262L1.51089 23.5647L20.3848 0.819286L19.6152 0.180714ZM0.915237 25.0193L11.1732 33.8784L11.8268 33.1216L1.56886 24.2624L0.915237 25.0193ZM11.0201 33.3596L5.02013 53.8596L5.97987 54.1404L11.9799 33.6404L11.0201 33.3596ZM5.88077 54.3241L25.2259 31.5935L24.4644 30.9454L5.11923 53.6759L5.88077 54.3241ZM25.0439 29.469L13.8201 20.1159L13.1799 20.8841L24.4037 30.2373L25.0439 29.469ZM13.9755 20.6545L20.4755 0.654543L19.5245 0.345457L13.0245 20.3455L13.9755 20.6545ZM25.2259 31.5935C25.7668 30.958 25.6849 30.0033 25.0439 29.469L24.4037 30.2373C24.6174 30.4153 24.6446 30.7336 24.4644 30.9454L25.2259 31.5935ZM0.741324 22.9262C0.219674 23.5548 0.296987 24.4853 0.915237 25.0193L1.56886 24.2624C1.36277 24.0845 1.337 23.7743 1.51089 23.5647L0.741324 22.9262Z" fill="#FBF628"/>
</svg>
