<svg width="77" height="106" viewBox="0 0 77 106" fill="none" xmlns="http://www.w3.org/2000/svg">
<path d="M6.29512 66.8715L11.6687 70.4654C9.5135 69.0113 4.03289 60.5724 9.29255 45.2015C14.5987 29.6948 22.2394 22.5075 32.7587 14.8598C41.1742 8.7417 49.9673 10.0053 53.3119 11.4019C49.1042 7.86093 43.7366 6.22444 41.5788 5.8488C28.7938 5.36595 23.1295 12.1237 19.1645 14.8598C15.1996 17.596 1.6412 32.8933 0.181378 48.2078C-0.986477 60.4594 3.7706 65.7551 6.29512 66.8715Z" fill="#FFAE00" fill-opacity="0.3"/>
<path fill-rule="evenodd" clip-rule="evenodd" d="M3.13888 37.0801C1.63497 40.6633 0.541021 44.4352 0.181378 48.2081C-0.986477 60.4597 3.7706 65.7554 6.29512 66.8718L11.6687 70.4657C9.5135 69.0116 4.03289 60.5727 9.29255 45.2019C9.83572 43.6145 10.4034 42.1143 10.996 40.6919L3.13888 37.0801Z" fill="#F69503" fill-opacity="0.3"/>
<path fill-rule="evenodd" clip-rule="evenodd" d="M15.2339 18.6056C18.5907 14.8745 22.4899 11.5036 26.8394 9.20831C38.4477 3.08243 45.6373 5.64423 47.781 7.69087L53.5456 11.5534C51.2211 10.0093 40.631 8.0062 27.6335 19.4485C25.9718 20.9114 24.4574 22.3572 23.0731 23.7943L15.2339 18.6056Z" fill="#FFCC00" fill-opacity="0.3"/>
<path opacity="0.2" d="M41.8916 11.3271H38.9678V14.378H41.8916V11.3271Z" fill="#FB82B5" fill-opacity="0.3"/>
<g style="mix-blend-mode:multiply" opacity="0.3">
<path d="M20.708 13.618L28.2812 17.956L29.3357 17.1455L21.7625 12.8076L20.708 13.618Z" fill="#FFA200" fill-opacity="0.3"/>
</g>
<g style="mix-blend-mode:multiply" opacity="0.3">
<path d="M16.6826 17.2409L24.16 21.5312L25.1186 20.6731L17.5933 16.3828L17.114 16.8118L16.6826 17.2409Z" fill="#FFA200" fill-opacity="0.3"/>
</g>
<g style="mix-blend-mode:multiply" opacity="0.3">
<path d="M37.7744 5.46427L46.0187 10.2312C46.7689 10.1835 47.5213 10.1835 48.2715 10.2312H48.607L39.9793 5.46427C39.2451 5.41686 38.5086 5.41686 37.7744 5.46427Z" fill="#FFA200" fill-opacity="0.3"/>
</g>
<g style="mix-blend-mode:multiply" opacity="0.3">
<path d="M30.7764 7.42068L38.5892 11.9016L40.1231 11.3772L32.2143 6.84863L31.4474 7.13464L30.7764 7.42068Z" fill="#FFA200" fill-opacity="0.3"/>
</g>
<g style="mix-blend-mode:multiply" opacity="0.3">
<path d="M25.2627 10.2783L32.8839 14.6639H33.1715L34.0342 14.1395L26.3651 9.75391L25.2627 10.2783Z" fill="#FFA200" fill-opacity="0.3"/>
</g>
<g style="mix-blend-mode:multiply" opacity="0.3">
<path d="M2.63965 39.0726L9.82943 43.1722V42.6478L10.117 42.0281L2.92725 37.8809C2.80386 38.271 2.70776 38.6692 2.63965 39.0726Z" fill="#FFA200" fill-opacity="0.3"/>
</g>
<g style="mix-blend-mode:multiply" opacity="0.3">
<path d="M0.191725 49.6062L7.18977 53.6105C7.18977 53.1814 7.18977 52.7524 7.18977 52.2757L0.143783 48.2715C0.120041 48.6525 0.120041 49.0346 0.143783 49.4155L0.191725 49.6062Z" fill="#FFA200" fill-opacity="0.3"/>
</g>
<g style="mix-blend-mode:multiply" opacity="0.3">
<path d="M13.1348 21.1461L20.5163 25.4363L21.0915 24.769L13.662 20.5264V20.7647L13.1348 21.1461Z" fill="#FFA200" fill-opacity="0.3"/>
</g>
<g style="mix-blend-mode:multiply" opacity="0.3">
<path d="M9.92383 25.2931L17.3053 29.5357C17.3053 29.202 17.7847 28.8683 18.0243 28.5346L10.8825 24.292L9.92383 25.2931Z" fill="#FFA200" fill-opacity="0.3"/>
</g>
<g style="mix-blend-mode:multiply" opacity="0.3">
<path d="M7.0957 29.6796L14.4293 33.8745C14.4293 33.4932 14.8607 33.1595 15.0524 32.8258L7.71882 28.6309L7.14365 29.5842L7.0957 29.6796Z" fill="#FFA200" fill-opacity="0.3"/>
</g>
<g style="mix-blend-mode:multiply" opacity="0.3">
<path d="M4.65234 34.2566L11.938 38.4039V38.0225C12.0843 37.7944 12.2125 37.5554 12.3214 37.3074L5.08373 33.1602L4.65234 33.9706V34.2566Z" fill="#FFA200" fill-opacity="0.3"/>
</g>
<g style="mix-blend-mode:multiply" opacity="0.3">
<path d="M0.0986328 54.0859V55.23L7.04875 59.6156V59.3296C7.04875 58.9483 7.04875 58.5669 7.04875 58.1855L0.0986328 54.0859Z" fill="#FFA200" fill-opacity="0.3"/>
</g>
<g style="mix-blend-mode:multiply" opacity="0.3">
<path d="M1.58203 60.9053C1.67381 61.1524 1.78603 61.3916 1.91755 61.6203C1.91755 62.0494 2.34894 62.4784 2.5886 62.9074L8.77181 66.435C8.5353 65.9386 8.32725 65.4293 8.14869 64.9096C8.1279 64.8153 8.1279 64.7178 8.14869 64.6235L1.58203 60.9053Z" fill="#FFA200" fill-opacity="0.3"/>
</g>
<g style="mix-blend-mode:multiply" opacity="0.3">
<path d="M1.29688 44.1234L8.39079 48.223C8.52493 47.8161 8.63694 47.4024 8.72631 46.9836L1.29688 42.9316V44.1234Z" fill="#FFA200" fill-opacity="0.3"/>
</g>
<path d="M36.8622 12.612C28.9548 16.7625 22.1403 22.705 16.9695 29.9593C11.7986 37.2135 8.4165 45.576 7.0965 54.3707C5.56268 70.6738 16.3473 78.2056 31.0624 71.6272C38.9639 67.4814 45.7747 61.5463 50.9452 54.3008C56.1157 47.0553 59.501 38.7024 60.8281 29.9161C62.5057 13.6131 51.721 5.89058 36.8622 12.612Z" fill="#FFD950" fill-opacity="0.3"/>
<path d="M21.0915 71.0115C24.1982 70.9354 27.2534 70.2043 30.0548 68.8663C37.4883 64.9631 43.8923 59.3725 48.7474 52.548C53.6025 45.7234 56.772 37.8569 57.999 29.5864C58.3967 27.2871 58.3213 24.9314 57.7776 22.6618C57.2338 20.3923 56.233 18.2559 54.8355 16.3819C53.8446 15.3333 52.6381 14.5094 51.2981 13.9665C49.9581 13.4235 48.5162 13.1742 47.0706 13.2357C44.0079 13.3381 41.0019 14.0855 38.2511 15.4285C30.7729 19.3285 24.3293 24.9337 19.4474 31.7857C14.5654 38.6377 11.3839 46.5418 10.163 54.8514C9.76259 57.1507 9.83654 59.507 10.3804 61.777C10.9242 64.047 11.9266 66.1832 13.3265 68.0559C14.3345 69.0702 15.5487 69.8586 16.8879 70.3683C18.227 70.878 19.6602 71.0973 21.0915 71.0115Z" fill="#FFC100" fill-opacity="0.3"/>
<path d="M33.5936 61.4202L31.4747 60.1607L31.5059 56.7861L33.6248 58.0457L33.5936 61.4202Z" fill="#D78400" fill-opacity="0.3"/>
<path d="M38.9486 47.5451L36.829 46.2853L36.8438 44.6865L38.9633 45.9463L38.9486 47.5451Z" fill="#D78400" fill-opacity="0.3"/>
<path d="M36.2881 42.9424L38.4084 44.2019C38.8324 44.4538 38.9689 45.0588 38.9607 45.9469L36.8404 44.6873C36.8483 43.8348 36.7105 43.3719 36.2881 42.9424Z" fill="#D78400" fill-opacity="0.3"/>
<path d="M38.8211 45.9488L36.7007 44.6892C36.7086 43.8367 36.7146 43.1973 36.1484 42.9443L38.2687 44.2038C38.6928 44.4557 38.8293 45.0607 38.8211 45.9488Z" fill="#D78400" fill-opacity="0.3"/>
<path d="M27.5984 60.3815L25.4798 59.1221L25.5195 54.8242L27.6381 56.0837L27.5984 60.3815Z" fill="#D78400" fill-opacity="0.3"/>
<path d="M27.6403 56.0896L25.5197 54.8297C26.9121 54.1298 30.4106 52.4154 33.6617 50.5571C34.5257 50.1958 35.2763 49.6077 35.8338 48.855C36.3913 48.1024 36.735 47.2134 36.8286 46.2821L38.9491 47.5418C38.8556 48.4731 38.5118 49.3622 37.9543 50.1148C37.3968 50.8674 36.6463 51.4556 35.7823 51.8169C32.5312 53.6752 29.0327 55.3896 27.6403 56.0896Z" fill="#D78400" fill-opacity="0.3"/>
<path d="M27.6383 56.0911L25.5175 54.8313C26.9099 54.1314 30.4084 52.4173 33.6595 50.5592C34.5235 50.1979 35.2741 49.6098 35.8316 48.8573C36.389 48.1047 36.7327 47.2157 36.8262 46.2844L38.9469 47.5442C38.8534 48.4755 38.5098 49.3645 37.9523 50.117C37.3948 50.8696 36.6443 51.4577 35.7803 51.819C32.5292 53.6771 29.0314 55.3202 27.6383 56.0911Z" fill="#D78400" fill-opacity="0.3"/>
<path d="M40.012 36.2936L42.1331 37.554C41.2139 37.0138 39.8627 37.0745 37.8261 38.232L35.7051 36.9715C37.7407 35.9207 39.0919 35.8599 40.012 36.2936Z" fill="#D78400" fill-opacity="0.3"/>
<path d="M37.8273 38.3416L35.7063 37.0813C37.743 35.9239 39.2719 35.8645 40.0134 36.4034L42.1345 37.6637C41.2153 37.1235 39.864 37.1842 37.8273 38.3416Z" fill="#D78400" fill-opacity="0.3"/>
<path d="M34.5737 40.1969L32.4533 38.9365L35.7041 37.0775L37.8244 38.3379L34.5737 40.1969Z" fill="#D78400" fill-opacity="0.3"/>
<path d="M32.3604 40.6758L30.2392 39.4511C30.6989 39.7034 31.4476 39.4603 32.4476 38.9348L34.5685 40.1951C33.5681 40.7561 32.8198 40.9636 32.3604 40.6758Z" fill="#D78400" fill-opacity="0.3"/>
<path d="M32.3574 40.6708L30.2363 39.4462C30.696 39.6985 31.4446 39.4554 32.4447 38.9299L34.5655 40.19C33.5651 40.7511 32.8168 40.9586 32.3574 40.6708Z" fill="#D78400" fill-opacity="0.3"/>
<path d="M36.7937 26.8247L34.6728 25.5645C36.6606 24.5672 38.7388 23.762 40.8792 23.1597L43 24.4199C40.8597 25.0222 38.7815 25.8274 36.7937 26.8247Z" fill="#D78400" fill-opacity="0.3"/>
<path d="M36.7934 26.8216L34.6726 25.5615C36.6605 24.5642 38.7388 23.7589 40.8792 23.1565L43 24.4166C40.8596 25.0189 38.7813 25.8243 36.7934 26.8216Z" fill="#D78400" fill-opacity="0.3"/>
<path d="M28.6407 47.1446L26.5207 45.8851C25.0014 44.9855 24.8104 42.6041 24.8242 41.1123L26.9441 42.3717C26.9303 43.8635 27.1569 46.2452 28.6407 47.1446Z" fill="#D78400" fill-opacity="0.3"/>
<path d="M28.6435 47.1435L26.5232 45.884C25.0037 44.9844 24.8124 42.6031 24.8262 41.1113L26.9464 42.3708C26.9327 43.8626 27.1595 46.2441 28.6435 47.1435Z" fill="#D78400" fill-opacity="0.3"/>
<path d="M26.9449 42.372L24.7902 41.112L24.8135 38.5898L26.9327 39.8495L26.9449 42.372Z" fill="#D78400" fill-opacity="0.3"/>
<path d="M33.8195 25.0641L31.6991 23.8037L34.6995 22.1205L36.8199 23.3809L33.8195 25.0641Z" fill="#D78400" fill-opacity="0.3"/>
<path d="M33.8231 28.4736L31.7042 27.214L31.7002 23.8037L33.8191 25.0633L33.8231 28.4736Z" fill="#D78400" fill-opacity="0.3"/>
<path d="M36.8218 23.3744L36.789 26.9264C38.7749 25.9297 40.8512 25.1248 42.9896 24.5228L42.9495 28.8564C40.952 29.8357 36.4567 32.1458 35.2071 32.8823L34.8521 32.8795C33.929 33.2301 33.1396 33.863 32.5964 34.688C32.0533 35.5131 31.7839 36.4882 31.8269 37.4744L31.8138 38.8952C31.7944 40.9909 32.7518 41.1403 34.5721 40.1241L37.8205 38.2663C42.8892 35.3922 43.8469 39.3426 43.8171 42.575L43.7994 44.4932C43.8622 46.9106 43.2423 49.2978 42.0109 51.3807C40.7795 53.4637 38.9864 55.158 36.8376 56.2691L36.589 56.2672L36.5588 59.5351L33.5606 61.2172L33.5934 57.6651C31.7119 58.7366 29.6823 59.5231 27.571 59.999L27.6071 56.0918C28.9983 55.392 32.494 53.6781 35.7424 51.8203C36.6057 51.459 37.3556 50.871 37.9127 50.1186C38.4697 49.3661 38.8131 48.4773 38.9066 47.5462L38.9213 45.9477C38.9364 44.3138 38.4469 43.493 36.5904 44.58L33.4492 46.3676C27.487 49.8743 26.8944 44.8254 26.9171 42.3745L26.9413 39.7459C26.9282 37.3988 27.5646 35.0927 28.7802 33.0832C29.9957 31.0736 31.743 29.439 33.8285 28.3602L33.8613 24.8081L36.8218 23.3744Z" fill="#FFD950" fill-opacity="0.3"/>
<path d="M26.9316 39.7507L24.8116 38.4912C24.7984 36.1441 25.4353 33.8381 26.6516 31.8285C27.8679 29.819 29.6162 28.1843 31.7029 27.1055L33.8229 28.365C31.7362 29.4438 29.9879 31.0784 28.7716 33.088C27.5553 35.0975 26.9185 37.4036 26.9316 39.7507Z" fill="#D78400" fill-opacity="0.3"/>
<path d="M26.9319 39.7542L24.8115 38.4947C24.7982 36.1476 25.4349 33.8418 26.6512 31.8323C27.8675 29.8229 29.6158 28.1884 31.7026 27.1097L33.823 28.3692C31.7362 29.4479 29.9878 31.0824 28.7715 33.0918C27.5553 35.1013 26.9186 37.4072 26.9319 39.7542Z" fill="#D78400" fill-opacity="0.3"/>
<g style="mix-blend-mode:screen" opacity="0.15">
<path d="M16.6329 36.1162C26.7945 42.1703 36.7643 48.6057 46.4465 55.1841C42.348 60.5075 37.1507 64.8961 31.2042 68.0549C24.4458 63.288 17.3519 58.521 10.1621 54.3737C11.008 47.904 13.2127 41.6835 16.6329 36.1162Z" fill="#F5EBCB" fill-opacity="0.3"/>
</g>
<g style="mix-blend-mode:screen" opacity="0.15">
<path d="M34.8458 17.2393C42.6587 22.0062 50.2799 27.3929 57.5176 33.0656C56.8992 36.1082 55.9677 39.0794 54.7376 41.9322C45.8702 35.1154 36.6193 28.9184 27.1768 22.8643C29.5086 20.704 32.0818 18.8167 34.8458 17.2393Z" fill="#F5EBCB" fill-opacity="0.3"/>
</g>
<path d="M27.2746 67.5282C30.4707 66.0374 33.4527 64.1297 36.142 61.8555L38.6824 63.2855C36.0511 65.4946 33.1528 67.3682 30.0547 68.8629C27.2826 70.1878 24.2615 70.9187 21.1873 71.008C18.9554 71.0713 16.7596 70.4378 14.9082 69.1966C16.0894 69.5512 17.3172 69.7279 18.551 69.721C21.5811 69.6053 24.5531 68.8582 27.2746 67.5282Z" fill="#FFCC00" fill-opacity="0.3"/>
<path d="M55.2206 28.2961C55.6335 25.9895 55.5658 23.6231 55.0216 21.3435C54.4775 19.064 53.4684 16.9199 52.0571 15.0439C51.6243 14.5661 51.1424 14.1347 50.6191 13.7568C52.1981 14.2614 53.6184 15.1648 54.7413 16.3787C56.1387 18.2527 57.1396 20.389 57.6833 22.6586C58.2271 24.9282 58.3024 27.2838 57.9048 29.5832C57.9048 30.7273 57.6172 31.8237 57.4255 32.9678L54.7892 31.4423C54.9809 30.3936 55.1247 29.3449 55.2206 28.2961Z" fill="#F69503" fill-opacity="0.3"/>
<path d="M54.7861 31.4424L57.4224 32.9679C54.7053 44.8517 48.1168 55.5099 38.681 63.2858L36.1406 61.8557C45.5504 54.0337 52.104 43.3439 54.7861 31.4424Z" fill="#FFB300" fill-opacity="0.3"/>
<path d="M17.8111 98.2939L23.6252 102.179C21.2933 100.607 15.3635 91.4841 21.0542 74.867C26.7953 58.1029 35.0623 50.3328 46.4439 42.0651C55.5491 35.4509 65.063 36.817 68.6817 38.3267C64.1291 34.4987 58.3216 32.7295 55.9869 32.3235C42.1539 31.8015 36.0254 39.1071 31.7354 42.0651C27.4454 45.0231 12.7757 61.5607 11.1962 78.117C9.93266 91.362 15.0797 97.087 17.8111 98.2939Z" fill="#FFAE00"/>
<path fill-rule="evenodd" clip-rule="evenodd" d="M14.3962 66.0869C12.769 69.9607 11.5854 74.0384 11.1962 78.1172C9.93266 91.3622 15.0797 97.0873 17.8111 98.2942L23.6252 102.179C21.2933 100.607 15.3635 91.4843 21.0542 74.8672C21.6419 73.1511 22.2561 71.5293 22.8973 69.9916L14.3962 66.0869Z" fill="#F69503"/>
<path fill-rule="evenodd" clip-rule="evenodd" d="M27.4742 46.114C31.1061 42.0785 35.3257 38.4326 40.033 35.9508C52.5906 29.3301 60.3695 32.1015 62.6893 34.3148L68.9268 38.4922C66.4116 36.8223 54.9538 34.6541 40.8943 47.0227C39.0951 48.6055 37.4556 50.1698 35.9572 51.7248L27.4742 46.114Z" fill="#FFCC00"/>
<path opacity="0.2" d="M56.3256 38.2451H53.1621V41.5433H56.3256V38.2451Z" fill="#FB82B5"/>
<g style="mix-blend-mode:multiply" opacity="0.3">
<path d="M33.4053 40.7218L41.5993 45.4115L42.7402 44.5354L34.5462 39.8457L33.4053 40.7218Z" fill="#FFA200"/>
</g>
<g style="mix-blend-mode:multiply" opacity="0.3">
<path d="M29.0498 44.6386L37.1401 49.2767L38.1773 48.3491L30.0352 43.7109L29.5166 44.1747L29.0498 44.6386Z" fill="#FFA200"/>
</g>
<g style="mix-blend-mode:multiply" opacity="0.3">
<path d="M51.8711 31.9076L60.7911 37.0611C61.6028 37.0095 62.4169 37.0095 63.2286 37.0611H63.5916L54.2567 31.9076C53.4623 31.8563 52.6655 31.8563 51.8711 31.9076Z" fill="#FFA200"/>
</g>
<g style="mix-blend-mode:multiply" opacity="0.3">
<path d="M44.2988 34.0227L52.7521 38.867L54.4116 38.3001L45.8546 33.4043L45.0249 33.7135L44.2988 34.0227Z" fill="#FFA200"/>
</g>
<g style="mix-blend-mode:multiply" opacity="0.3">
<path d="M38.333 37.1118L46.5789 41.853H46.89L47.8235 41.2861L39.5258 36.5449L38.333 37.1118Z" fill="#FFA200"/>
</g>
<g style="mix-blend-mode:multiply" opacity="0.3">
<path d="M13.8564 68.2405L21.6355 72.6725V72.1056L21.9467 71.4357L14.1676 66.9521C14.0341 67.374 13.9301 67.8044 13.8564 68.2405Z" fill="#FFA200"/>
</g>
<g style="mix-blend-mode:multiply" opacity="0.3">
<path d="M11.2079 79.6285L18.7795 83.9574C18.7795 83.4936 18.7795 83.0298 18.7795 82.5145L11.156 78.1855C11.1303 78.5974 11.1303 79.0105 11.156 79.4224L11.2079 79.6285Z" fill="#FFA200"/>
</g>
<g style="mix-blend-mode:multiply" opacity="0.3">
<path d="M25.2109 48.8604L33.1975 53.4985L33.8198 52.777L25.7814 48.1904V48.4481L25.2109 48.8604Z" fill="#FFA200"/>
</g>
<g style="mix-blend-mode:multiply" opacity="0.3">
<path d="M21.7363 53.344L29.7229 57.9306C29.7229 57.5698 30.2415 57.2091 30.5008 56.8484L22.7735 52.2617L21.7363 53.344Z" fill="#FFA200"/>
</g>
<g style="mix-blend-mode:multiply" opacity="0.3">
<path d="M18.6777 58.0859L26.6124 62.621C26.6124 62.2087 27.0792 61.8479 27.2866 61.4872L19.3519 56.9521L18.7296 57.9828L18.6777 58.0859Z" fill="#FFA200"/>
</g>
<g style="mix-blend-mode:multiply" opacity="0.3">
<path d="M16.0342 63.034L23.917 67.5175V67.1052C24.0753 66.8587 24.214 66.6002 24.3319 66.3322L16.5009 61.8486L16.0342 62.7248V63.034Z" fill="#FFA200"/>
</g>
<g style="mix-blend-mode:multiply" opacity="0.3">
<path d="M11.1064 84.4707V85.7076L18.6262 90.4488V90.1396C18.6262 89.7273 18.6262 89.315 18.6262 88.9027L11.1064 84.4707Z" fill="#FFA200"/>
</g>
<g style="mix-blend-mode:multiply" opacity="0.3">
<path d="M12.7119 91.8438C12.8112 92.111 12.9326 92.3695 13.0749 92.6168C13.0749 93.0806 13.5417 93.5444 13.801 94.0082L20.491 97.8218C20.2351 97.2852 20.01 96.7346 19.8168 96.1727C19.7943 96.0708 19.7943 95.9654 19.8168 95.8635L12.7119 91.8438Z" fill="#FFA200"/>
</g>
<g style="mix-blend-mode:multiply" opacity="0.3">
<path d="M12.4033 73.7005L20.0787 78.1325C20.2238 77.6927 20.345 77.2454 20.4417 76.7926L12.4033 72.4121V73.7005Z" fill="#FFA200"/>
</g>
<path d="M50.8832 39.6349C42.3277 44.1218 34.9547 50.5462 29.36 58.3886C23.7653 66.2311 20.1059 75.2716 18.6777 84.7794C17.0182 102.404 28.6869 110.547 44.6081 103.435C53.1572 98.9531 60.5263 92.5367 66.1206 84.7038C71.7149 76.8708 75.3777 67.8406 76.8136 58.342C78.6287 40.7171 66.96 32.3684 50.8832 39.6349Z" fill="#FFD950"/>
<path d="M33.8206 102.769C37.182 102.687 40.4875 101.896 43.5185 100.45C51.5614 96.2303 58.4903 90.1864 63.7433 82.8085C68.9964 75.4305 72.4258 66.9262 73.7533 57.9852C74.1835 55.4994 74.102 52.9527 73.5137 50.4991C72.9254 48.0455 71.8425 45.7359 70.3305 43.71C69.2584 42.5763 67.953 41.6857 66.5031 41.0987C65.0533 40.5118 63.4932 40.2423 61.9291 40.3087C58.6154 40.4194 55.363 41.2274 52.3867 42.6793C44.2955 46.8955 37.3238 52.9552 32.0417 60.3628C26.7596 67.7704 23.3173 76.3153 21.9963 85.2987C21.5631 87.7844 21.6431 90.3317 22.2315 92.7858C22.8199 95.2398 23.9044 97.5493 25.4191 99.5738C26.5097 100.67 27.8234 101.523 29.2724 102.074C30.7213 102.625 32.272 102.862 33.8206 102.769Z" fill="#FFC100"/>
<path d="M47.3463 92.3994L45.0546 91.038L45.0889 87.3896L47.3806 88.7511L47.3463 92.3994Z" fill="#D78400"/>
<path d="M53.1398 77.3999L50.8471 76.0382L50.8633 74.3096L53.156 75.6714L53.1398 77.3999Z" fill="#D78400"/>
<path d="M50.2627 72.4238L52.5562 73.7853C53.0149 74.0576 53.1625 74.7118 53.1534 75.672L50.86 74.3104C50.8686 73.3886 50.7196 72.8882 50.2627 72.4238Z" fill="#D78400"/>
<path d="M53.0022 75.6738L50.7086 74.3123C50.7172 73.3905 50.7238 72.6992 50.1113 72.4258L52.4049 73.7873C52.8636 74.0596 53.0112 74.7137 53.0022 75.6738Z" fill="#D78400"/>
<path d="M40.8589 91.2764L38.5677 89.9151L38.6113 85.2686L40.9025 86.6299L40.8589 91.2764Z" fill="#D78400"/>
<path d="M40.9044 86.6385L38.6104 85.2766C40.117 84.5195 43.9021 82.6653 47.4196 80.6555C48.3544 80.2646 49.1664 79.6286 49.7697 78.8147C50.373 78.0008 50.745 77.0395 50.8463 76.0324L53.1402 77.3943C53.0389 78.4013 52.6669 79.3627 52.0636 80.1765C51.4604 80.9904 50.6483 81.6265 49.7135 82.0174C46.1961 84.0272 42.4109 85.8814 40.9044 86.6385Z" fill="#D78400"/>
<path d="M40.9022 86.6393L38.6083 85.2775C40.1148 84.5204 43.9 82.6661 47.4176 80.6562C48.3524 80.2654 49.1645 79.6293 49.7678 78.8154C50.3711 78.0015 50.7431 77.0402 50.8445 76.0332L53.1384 77.3949C53.0371 78.4019 52.665 79.3633 52.0617 80.1772C51.4584 80.9911 50.6464 81.6272 49.7116 82.018C46.194 84.0279 42.4095 85.8054 40.9022 86.6393Z" fill="#D78400"/>
<path d="M54.2918 65.2352L56.5862 66.598C55.5919 66.0138 54.13 66.0798 51.9263 67.332L49.6319 65.9693C51.8345 64.8323 53.2964 64.7664 54.2918 65.2352Z" fill="#D78400"/>
<path d="M51.9275 67.4508L49.6331 66.0881C51.8368 64.836 53.4909 64.7715 54.293 65.3542L56.5875 66.7169C55.5932 66.1328 54.1313 66.1987 51.9275 67.4508Z" fill="#D78400"/>
<path d="M48.4065 69.4562L46.1127 68.0936L49.6299 66.0829L51.9237 67.4455L48.4065 69.4562Z" fill="#D78400"/>
<path d="M46.0119 69.9738L43.7172 68.6498C44.2146 68.9226 45.0245 68.6595 46.1066 68.0911L48.4009 69.4536C47.3185 70.0605 46.5089 70.285 46.0119 69.9738Z" fill="#D78400"/>
<path d="M46.009 69.9688L43.7143 68.6449C44.2116 68.9177 45.0216 68.6546 46.1036 68.0862L48.3979 69.4486C47.3155 70.0555 46.5059 70.28 46.009 69.9688Z" fill="#D78400"/>
<path d="M50.8085 54.9996L48.5141 53.6372C50.665 52.5584 52.9136 51.6872 55.2294 51.0355L57.5237 52.3979C55.2079 53.0496 52.9593 53.9208 50.8085 54.9996Z" fill="#D78400"/>
<path d="M50.8084 54.9965L48.5141 53.6342C50.6649 52.5554 52.9136 51.6842 55.2294 51.0325L57.5237 52.3948C55.2079 53.0465 52.9593 53.9177 50.8084 54.9965Z" fill="#D78400"/>
<path d="M41.9868 76.9667L39.6938 75.6053C38.0505 74.6329 37.8442 72.0582 37.8594 70.4453L40.1523 71.8067C40.1371 73.4196 40.3819 75.9945 41.9868 76.9667Z" fill="#D78400"/>
<path d="M41.989 76.9656L39.6959 75.6043C38.0525 74.6318 37.8462 72.0572 37.8613 70.4443L40.1544 71.8057C40.1392 73.4186 40.384 75.9935 41.989 76.9656Z" fill="#D78400"/>
<path d="M40.1517 71.8066L37.8211 70.4447L37.8467 67.7178L40.1389 69.0794L40.1517 71.8066Z" fill="#D78400"/>
<path d="M47.5909 53.0971L45.2971 51.7345L48.5435 49.9139L50.8373 51.2764L47.5909 53.0971Z" fill="#D78400"/>
<path d="M47.5944 56.7809L45.3026 55.4195L45.2988 51.7324L47.5905 53.0939L47.5944 56.7809Z" fill="#D78400"/>
<path d="M50.8415 51.2686L50.8055 55.1089C52.9537 54.0309 55.1996 53.1604 57.5126 52.5093L57.4686 57.1945C55.3079 58.2536 50.4453 60.7519 49.0936 61.5482L48.7096 61.5454C47.7111 61.9245 46.8572 62.6089 46.2695 63.5009C45.6819 64.393 45.3905 65.4473 45.4368 66.5135L45.4224 68.0497C45.4011 70.3154 46.4365 70.4768 48.4056 69.3779L51.9194 67.3688C57.4023 64.2607 58.4376 68.5315 58.4048 72.0262L58.3854 74.1C58.4529 76.7136 57.7821 79.2946 56.4498 81.5468C55.1176 83.799 53.1779 85.631 50.8535 86.8326L50.5846 86.8306L50.5515 90.3637L47.3083 92.1828L47.3443 88.3424C45.309 89.5012 43.1137 90.3518 40.8299 90.8667L40.8696 86.6423C42.3745 85.8855 46.1557 84.0321 49.6696 82.023C50.6034 81.6323 51.4146 80.9964 52.0173 80.1828C52.6199 79.3693 52.9915 78.4082 53.0927 77.4015L53.1089 75.6734C53.1255 73.9069 52.5961 73.0195 50.588 74.195L47.1901 76.1282C40.7406 79.9203 40.1005 74.4619 40.1254 71.8121L40.1521 68.9702C40.1382 66.4326 40.8269 63.9393 42.142 61.7664C43.4571 59.5936 45.3473 57.8261 47.6032 56.6595L47.6392 52.8191L50.8415 51.2686Z" fill="#FFD950"/>
<path d="M40.1374 68.9745L37.8442 67.6131C37.8304 65.0754 38.5197 62.5822 39.8357 60.4093C41.1518 58.2364 43.0432 56.4688 45.3006 55.3021L47.5938 56.6635C45.3364 57.8302 43.4449 59.5978 42.1288 61.7707C40.8128 63.9435 40.1236 66.4369 40.1374 68.9745Z" fill="#D78400"/>
<path d="M40.1373 68.9782L37.844 67.6168C37.8302 65.0792 38.5196 62.5859 39.8357 60.4131C41.1518 58.2402 43.0433 56.4726 45.3009 55.3059L47.5941 56.6673C45.3366 57.834 43.445 59.6016 42.1289 61.7744C40.8127 63.9473 40.1234 66.4406 40.1373 68.9782Z" fill="#D78400"/>
<g style="mix-blend-mode:screen" opacity="0.15">
<path d="M28.9963 65.0449C39.9908 71.5899 50.7778 78.5471 61.2537 85.6589C56.8192 91.4139 51.1959 96.1584 44.762 99.5733C37.4496 94.4198 29.7742 89.2663 21.9951 84.7828C22.9104 77.7885 25.2958 71.0636 28.9963 65.0449Z" fill="#F5EBCB"/>
</g>
<g style="mix-blend-mode:screen" opacity="0.15">
<path d="M48.702 44.6367C57.1553 49.7902 65.4011 55.6136 73.2321 61.7463C72.5631 65.0355 71.5551 68.2476 70.2242 71.3318C60.63 63.9623 50.6209 57.2628 40.4043 50.7178C42.9273 48.3824 45.7113 46.342 48.702 44.6367Z" fill="#F5EBCB"/>
</g>
<path d="M40.5109 99.0028C43.9689 97.3911 47.1954 95.3288 50.1051 92.8701L52.8538 94.4161C50.0068 96.8043 46.8709 98.8298 43.5188 100.446C40.5195 101.878 37.2509 102.668 33.9246 102.765C31.5098 102.833 29.134 102.148 27.1309 100.806C28.4088 101.19 29.7374 101.381 31.0723 101.373C34.3508 101.248 37.5663 100.441 40.5109 99.0028Z" fill="#FFCC00"/>
<path d="M70.7462 56.5912C71.193 54.0975 71.1197 51.5393 70.5309 49.0749C69.9421 46.6105 68.8504 44.2925 67.3234 42.2645C66.8552 41.7479 66.3337 41.2816 65.7676 40.873C67.476 41.4186 69.0127 42.3952 70.2276 43.7075C71.7396 45.7334 72.8225 48.043 73.4108 50.4966C73.9991 52.9502 74.0806 55.4968 73.6504 57.9826C73.6504 59.2195 73.3392 60.4048 73.1318 61.6416L70.2794 59.9925C70.4869 58.8587 70.6425 57.725 70.7462 56.5912Z" fill="#F69503"/>
<path d="M70.2773 59.9922L73.1297 61.6413C70.1898 74.4887 63.0613 86.0111 52.8521 94.4175L50.1035 92.8715C60.2846 84.4153 67.3754 72.8587 70.2773 59.9922Z" fill="#FFB300"/>
</svg>
